<svg width="25" height="24" viewBox="0 0 25 24" fill="none" xmlns="http://www.w3.org/2000/svg">
<path d="M22.5 9.25H2.5C2.09 9.25 1.75 8.91 1.75 8.5C1.75 8.09 2.09 7.75 2.5 7.75H22.5C22.91 7.75 23.25 8.09 23.25 8.5C23.25 8.91 22.91 9.25 22.5 9.25Z" fill="#4C4D50"/>
<path d="M8.5 17.25H6.5C6.09 17.25 5.75 16.91 5.75 16.5C5.75 16.09 6.09 15.75 6.5 15.75H8.5C8.91 15.75 9.25 16.09 9.25 16.5C9.25 16.91 8.91 17.25 8.5 17.25Z" fill="#4C4D50"/>
<path d="M15 17.25H11C10.59 17.25 10.25 16.91 10.25 16.5C10.25 16.09 10.59 15.75 11 15.75H15C15.41 15.75 15.75 16.09 15.75 16.5C15.75 16.91 15.41 17.25 15 17.25Z" fill="#4C4D50"/>
<path d="M18.06 21.25H6.94C2.96 21.25 1.75 20.05 1.75 16.11V7.89C1.75 3.95 2.96 2.75 6.94 2.75H18.05C22.03 2.75 23.24 3.95 23.24 7.89V16.1C23.25 20.05 22.04 21.25 18.06 21.25ZM6.94 4.25C3.8 4.25 3.25 4.79 3.25 7.89V16.1C3.25 19.2 3.8 19.74 6.94 19.74H18.05C21.19 19.74 21.74 19.2 21.74 16.1V7.89C21.74 4.79 21.19 4.25 18.05 4.25H6.94Z" fill="#4C4D50"/>
</svg>
