<svg width="25" height="24" viewBox="0 0 25 24" fill="none" xmlns="http://www.w3.org/2000/svg">
<path d="M21.5 22.75H3.5C3.09 22.75 2.75 22.41 2.75 22C2.75 21.59 3.09 21.25 3.5 21.25H21.5C21.91 21.25 22.25 21.59 22.25 22C22.25 22.41 21.91 22.75 21.5 22.75Z" fill="#4C4D50"/>
<path d="M6.09998 19.75H4.5C3.54 19.75 2.75 18.96 2.75 18V9.38C2.75 8.42 3.54 7.63 4.5 7.63H6.09998C7.05998 7.63 7.84998 8.42 7.84998 9.38V18C7.84998 18.96 7.05998 19.75 6.09998 19.75ZM4.5 9.12C4.36 9.12 4.25 9.23 4.25 9.37V18C4.25 18.14 4.36 18.25 4.5 18.25H6.09998C6.23998 18.25 6.34998 18.14 6.34998 18V9.38C6.34998 9.24 6.23998 9.13 6.09998 9.13H4.5V9.12Z" fill="#4C4D50"/>
<path d="M13.3002 19.7499H11.7002C10.7402 19.7499 9.9502 18.9599 9.9502 17.9999V6.18994C9.9502 5.22994 10.7402 4.43994 11.7002 4.43994H13.3002C14.2602 4.43994 15.0502 5.22994 15.0502 6.18994V17.9999C15.0502 18.9599 14.2602 19.7499 13.3002 19.7499ZM11.7002 5.93994C11.5602 5.93994 11.4502 6.04994 11.4502 6.18994V17.9999C11.4502 18.1399 11.5602 18.2499 11.7002 18.2499H13.3002C13.4402 18.2499 13.5502 18.1399 13.5502 17.9999V6.18994C13.5502 6.04994 13.4402 5.93994 13.3002 5.93994H11.7002Z" fill="#4C4D50"/>
<path d="M20.5004 19.75H18.9004C17.9404 19.75 17.1504 18.96 17.1504 18V3C17.1504 2.04 17.9404 1.25 18.9004 1.25H20.5004C21.4604 1.25 22.2504 2.04 22.2504 3V18C22.2504 18.96 21.4604 19.75 20.5004 19.75ZM18.9004 2.75C18.7604 2.75 18.6504 2.86 18.6504 3V18C18.6504 18.14 18.7604 18.25 18.9004 18.25H20.5004C20.6404 18.25 20.7504 18.14 20.7504 18V3C20.7504 2.86 20.6404 2.75 20.5004 2.75H18.9004Z" fill="#4C4D50"/>
</svg>
