<svg width="52" height="52" viewBox="0 0 52 52" fill="none" xmlns="http://www.w3.org/2000/svg">
<rect width="52" height="52" rx="26" fill="#610C89"/>
<path d="M27.6335 32.3233H24.7052C22.7918 32.3233 21.2402 30.7133 21.2402 28.73C21.2402 28.2516 21.6368 27.855 22.1152 27.855C22.5935 27.855 22.9902 28.2516 22.9902 28.73C22.9902 29.745 23.7602 30.5733 24.7052 30.5733H27.6335C28.3918 30.5733 29.0218 29.8966 29.0218 29.08C29.0218 28.065 28.6602 27.8666 28.0652 27.6566L23.3635 26C22.4535 25.685 21.2285 25.0083 21.2285 22.92C21.2285 21.1233 22.6402 19.6766 24.3668 19.6766H27.2952C29.2085 19.6766 30.7602 21.2866 30.7602 23.27C30.7602 23.7483 30.3635 24.145 29.8852 24.145C29.4068 24.145 29.0102 23.7483 29.0102 23.27C29.0102 22.255 28.2402 21.4266 27.2952 21.4266H24.3668C23.6085 21.4266 22.9785 22.1033 22.9785 22.92C22.9785 23.935 23.3402 24.1333 23.9352 24.3433L28.6368 26C29.5469 26.315 30.7718 26.9916 30.7718 29.08C30.7602 30.865 29.3602 32.3233 27.6335 32.3233Z" fill="white"/>
<path d="M26 33.875C25.5217 33.875 25.125 33.4783 25.125 33V19C25.125 18.5217 25.5217 18.125 26 18.125C26.4783 18.125 26.875 18.5217 26.875 19V33C26.875 33.4783 26.4783 33.875 26 33.875Z" fill="white"/>
<path d="M25.9997 38.5417C19.0813 38.5417 13.458 32.9184 13.458 26C13.458 19.0817 19.0813 13.4584 25.9997 13.4584C32.918 13.4584 38.5413 19.0817 38.5413 26C38.5413 32.9184 32.918 38.5417 25.9997 38.5417ZM25.9997 15.2084C20.0497 15.2084 15.208 20.05 15.208 26C15.208 31.95 20.0497 36.7917 25.9997 36.7917C31.9497 36.7917 36.7913 31.95 36.7913 26C36.7913 20.05 31.9497 15.2084 25.9997 15.2084Z" fill="white"/>
</svg>
