<svg width="25" height="24" viewBox="0 0 25 24" fill="none" xmlns="http://www.w3.org/2000/svg">
<path d="M12.6205 13.53C12.6005 13.53 12.5705 13.53 12.5505 13.53C12.5205 13.53 12.4805 13.53 12.4505 13.53C10.1805 13.46 8.48047 11.69 8.48047 9.50998C8.48047 7.28998 10.2905 5.47998 12.5105 5.47998C14.7305 5.47998 16.5405 7.28998 16.5405 9.50998C16.5305 11.7 14.8205 13.46 12.6505 13.53C12.6305 13.53 12.6305 13.53 12.6205 13.53ZM12.5005 6.96998C11.1005 6.96998 9.97047 8.10998 9.97047 9.49998C9.97047 10.87 11.0405 11.98 12.4005 12.03C12.4305 12.02 12.5305 12.02 12.6305 12.03C13.9705 11.96 15.0205 10.86 15.0305 9.49998C15.0305 8.10998 13.9005 6.96998 12.5005 6.96998Z" fill="#4C4D50"/>
<path d="M12.4998 22.7499C9.80984 22.7499 7.23984 21.7499 5.24984 19.9299C5.06984 19.7699 4.98984 19.5299 5.00984 19.2999C5.13984 18.1099 5.87984 16.9999 7.10984 16.1799C10.0898 14.1999 14.9198 14.1999 17.8898 16.1799C19.1198 17.0099 19.8598 18.1099 19.9898 19.2999C20.0198 19.5399 19.9298 19.7699 19.7498 19.9299C17.7598 21.7499 15.1898 22.7499 12.4998 22.7499ZM6.57984 19.0999C8.23984 20.4899 10.3298 21.2499 12.4998 21.2499C14.6698 21.2499 16.7598 20.4899 18.4198 19.0999C18.2398 18.4899 17.7598 17.8999 17.0498 17.4199C14.5898 15.7799 10.4198 15.7799 7.93984 17.4199C7.22984 17.8999 6.75984 18.4899 6.57984 19.0999Z" fill="#4C4D50"/>
<path d="M12.5 22.75C6.57 22.75 1.75 17.93 1.75 12C1.75 6.07 6.57 1.25 12.5 1.25C18.43 1.25 23.25 6.07 23.25 12C23.25 17.93 18.43 22.75 12.5 22.75ZM12.5 2.75C7.4 2.75 3.25 6.9 3.25 12C3.25 17.1 7.4 21.25 12.5 21.25C17.6 21.25 21.75 17.1 21.75 12C21.75 6.9 17.6 2.75 12.5 2.75Z" fill="#4C4D50"/>
</svg>
