<svg width="430" height="932" viewBox="0 0 430 932" fill="none" xmlns="http://www.w3.org/2000/svg">
<g clip-path="url(#clip0_9_1216)">
<rect width="430" height="932" fill="white"/>
<path opacity="0.2" d="M496.529 355.456C529.819 479.695 533.385 597.201 497.93 691.773C462.548 786.147 388.167 858.087 264.547 891.211C140.718 924.391 -8.86526 912.265 -135.785 860.792C-262.725 809.31 -366.396 718.74 -399.411 595.522C-432.674 471.385 -432.941 348.065 -394.127 247.638C-355.366 147.351 -277.564 69.6658 -154.034 36.566C-30.3022 3.4121 115.87 21.2792 239.444 78.5182C363.029 135.762 463.481 232.119 496.529 355.456Z" fill="white" stroke="#610C89" stroke-width="7"/>
<path d="M146.406 471.953L151.469 454.25H157.141L149.344 477H145.641L146.406 471.953ZM141.797 454.25L146.844 471.953L147.641 477H143.891L136.141 454.25H141.797ZM163.922 460.094V477H159.031V460.094H163.922ZM158.734 455.719C158.734 455.01 158.984 454.432 159.484 453.984C159.984 453.526 160.641 453.297 161.453 453.297C162.266 453.297 162.922 453.526 163.422 453.984C163.932 454.432 164.188 455.01 164.188 455.719C164.188 456.417 163.932 456.995 163.422 457.453C162.922 457.901 162.266 458.125 161.453 458.125C160.641 458.125 159.984 457.901 159.484 457.453C158.984 456.995 158.734 456.417 158.734 455.719ZM172.328 464.031V477H167.453V460.094H172.031L172.328 464.031ZM177.375 459.969L177.297 464.516C177.089 464.484 176.818 464.458 176.484 464.438C176.151 464.406 175.865 464.391 175.625 464.391C175 464.391 174.458 464.469 174 464.625C173.552 464.771 173.177 464.99 172.875 465.281C172.583 465.573 172.365 465.938 172.219 466.375C172.073 466.802 172 467.297 172 467.859L171.078 467.406C171.078 466.292 171.188 465.271 171.406 464.344C171.625 463.417 171.943 462.615 172.359 461.938C172.776 461.25 173.286 460.719 173.891 460.344C174.495 459.969 175.182 459.781 175.953 459.781C176.203 459.781 176.458 459.797 176.719 459.828C176.979 459.859 177.198 459.906 177.375 459.969ZM188.75 460.094V463.516H178.719V460.094H188.75ZM181.016 455.906H185.906V471.703C185.906 472.172 185.964 472.531 186.078 472.781C186.193 473.031 186.38 473.208 186.641 473.312C186.901 473.406 187.234 473.453 187.641 473.453C187.932 473.453 188.182 473.443 188.391 473.422C188.599 473.401 188.792 473.375 188.969 473.344V476.875C188.552 477.01 188.109 477.115 187.641 477.188C187.172 477.271 186.661 477.312 186.109 477.312C185.057 477.312 184.146 477.141 183.375 476.797C182.615 476.453 182.031 475.911 181.625 475.172C181.219 474.422 181.016 473.448 181.016 472.25V455.906ZM201.016 472.922V460.094H205.922V477H201.328L201.016 472.922ZM201.531 469.469L202.875 469.438C202.875 470.573 202.74 471.62 202.469 472.578C202.208 473.536 201.812 474.37 201.281 475.078C200.76 475.786 200.109 476.339 199.328 476.734C198.557 477.12 197.656 477.312 196.625 477.312C195.792 477.312 195.026 477.198 194.328 476.969C193.641 476.729 193.047 476.359 192.547 475.859C192.047 475.349 191.661 474.698 191.391 473.906C191.12 473.104 190.984 472.146 190.984 471.031V460.094H195.859V471.062C195.859 471.5 195.911 471.875 196.016 472.188C196.13 472.49 196.281 472.74 196.469 472.938C196.667 473.135 196.906 473.281 197.188 473.375C197.479 473.469 197.797 473.516 198.141 473.516C199.005 473.516 199.682 473.339 200.172 472.984C200.672 472.62 201.021 472.135 201.219 471.531C201.427 470.917 201.531 470.229 201.531 469.469ZM218.047 472.969V465.719C218.047 465.208 217.969 464.771 217.812 464.406C217.656 464.042 217.411 463.755 217.078 463.547C216.745 463.339 216.312 463.234 215.781 463.234C215.333 463.234 214.943 463.312 214.609 463.469C214.286 463.625 214.036 463.849 213.859 464.141C213.693 464.432 213.609 464.792 213.609 465.219H208.734C208.734 464.458 208.906 463.75 209.25 463.094C209.594 462.438 210.083 461.859 210.719 461.359C211.365 460.859 212.135 460.474 213.031 460.203C213.927 459.922 214.932 459.781 216.047 459.781C217.37 459.781 218.547 460.005 219.578 460.453C220.62 460.891 221.443 461.552 222.047 462.438C222.651 463.312 222.953 464.417 222.953 465.75V472.828C222.953 473.849 223.01 474.651 223.125 475.234C223.25 475.807 223.427 476.307 223.656 476.734V477H218.734C218.505 476.51 218.333 475.906 218.219 475.188C218.104 474.458 218.047 473.719 218.047 472.969ZM218.656 466.688L218.688 469.375H216.266C215.724 469.375 215.255 469.443 214.859 469.578C214.474 469.714 214.161 469.901 213.922 470.141C213.682 470.37 213.505 470.641 213.391 470.953C213.286 471.255 213.234 471.589 213.234 471.953C213.234 472.297 213.318 472.609 213.484 472.891C213.651 473.161 213.88 473.375 214.172 473.531C214.464 473.688 214.802 473.766 215.188 473.766C215.823 473.766 216.365 473.641 216.812 473.391C217.271 473.141 217.625 472.839 217.875 472.484C218.125 472.12 218.25 471.781 218.25 471.469L219.422 473.5C219.234 473.917 219.005 474.349 218.734 474.797C218.464 475.234 218.12 475.646 217.703 476.031C217.286 476.406 216.781 476.714 216.188 476.953C215.604 477.193 214.901 477.312 214.078 477.312C213.016 477.312 212.052 477.099 211.188 476.672C210.323 476.234 209.63 475.635 209.109 474.875C208.599 474.115 208.344 473.24 208.344 472.25C208.344 471.365 208.505 470.578 208.828 469.891C209.151 469.203 209.635 468.62 210.281 468.141C210.938 467.661 211.76 467.302 212.75 467.062C213.74 466.812 214.896 466.688 216.219 466.688H218.656ZM231.297 453V477H226.406V453H231.297ZM252 469.094H246.281V465.141H252C252.844 465.141 253.521 465 254.031 464.719C254.552 464.438 254.932 464.052 255.172 463.562C255.422 463.062 255.547 462.5 255.547 461.875C255.547 461.229 255.422 460.63 255.172 460.078C254.932 459.516 254.552 459.062 254.031 458.719C253.521 458.375 252.844 458.203 252 458.203H248.125V477H243.031V454.25H252C253.812 454.25 255.365 454.578 256.656 455.234C257.958 455.891 258.953 456.792 259.641 457.938C260.339 459.073 260.688 460.375 260.688 461.844C260.688 463.312 260.339 464.589 259.641 465.672C258.953 466.755 257.958 467.599 256.656 468.203C255.365 468.797 253.812 469.094 252 469.094ZM272.297 472.969V465.719C272.297 465.208 272.219 464.771 272.062 464.406C271.906 464.042 271.661 463.755 271.328 463.547C270.995 463.339 270.562 463.234 270.031 463.234C269.583 463.234 269.193 463.312 268.859 463.469C268.536 463.625 268.286 463.849 268.109 464.141C267.943 464.432 267.859 464.792 267.859 465.219H262.984C262.984 464.458 263.156 463.75 263.5 463.094C263.844 462.438 264.333 461.859 264.969 461.359C265.615 460.859 266.385 460.474 267.281 460.203C268.177 459.922 269.182 459.781 270.297 459.781C271.62 459.781 272.797 460.005 273.828 460.453C274.87 460.891 275.693 461.552 276.297 462.438C276.901 463.312 277.203 464.417 277.203 465.75V472.828C277.203 473.849 277.26 474.651 277.375 475.234C277.5 475.807 277.677 476.307 277.906 476.734V477H272.984C272.755 476.51 272.583 475.906 272.469 475.188C272.354 474.458 272.297 473.719 272.297 472.969ZM272.906 466.688L272.938 469.375H270.516C269.974 469.375 269.505 469.443 269.109 469.578C268.724 469.714 268.411 469.901 268.172 470.141C267.932 470.37 267.755 470.641 267.641 470.953C267.536 471.255 267.484 471.589 267.484 471.953C267.484 472.297 267.568 472.609 267.734 472.891C267.901 473.161 268.13 473.375 268.422 473.531C268.714 473.688 269.052 473.766 269.438 473.766C270.073 473.766 270.615 473.641 271.062 473.391C271.521 473.141 271.875 472.839 272.125 472.484C272.375 472.12 272.5 471.781 272.5 471.469L273.672 473.5C273.484 473.917 273.255 474.349 272.984 474.797C272.714 475.234 272.37 475.646 271.953 476.031C271.536 476.406 271.031 476.714 270.438 476.953C269.854 477.193 269.151 477.312 268.328 477.312C267.266 477.312 266.302 477.099 265.438 476.672C264.573 476.234 263.88 475.635 263.359 474.875C262.849 474.115 262.594 473.24 262.594 472.25C262.594 471.365 262.755 470.578 263.078 469.891C263.401 469.203 263.885 468.62 264.531 468.141C265.188 467.661 266.01 467.302 267 467.062C267.99 466.812 269.146 466.688 270.469 466.688H272.906ZM285.25 475.047L289.672 460.094H294.922L288.125 479.531C287.979 479.958 287.781 480.417 287.531 480.906C287.292 481.396 286.964 481.865 286.547 482.312C286.141 482.76 285.62 483.125 284.984 483.406C284.349 483.688 283.568 483.828 282.641 483.828C282.172 483.828 281.807 483.802 281.547 483.75C281.297 483.708 280.964 483.635 280.547 483.531L280.531 479.984C280.667 479.984 280.786 479.984 280.891 479.984C281.005 479.995 281.12 480 281.234 480C281.818 480 282.286 479.938 282.641 479.812C283.005 479.688 283.286 479.5 283.484 479.25C283.693 479.01 283.859 478.703 283.984 478.328L285.25 475.047ZM283.766 460.094L287.266 472.125L287.859 477.297L284.562 477.469L278.516 460.094H283.766ZM202.266 496.578L196.391 515H190.953L199.375 492.25H202.812L202.266 496.578ZM207.141 515L201.25 496.578L200.641 492.25H204.125L212.578 515H207.141ZM206.891 506.531V510.469H195.031V506.531H206.891ZM218.484 501.344V521.5H213.609V498.094H218.156L218.484 501.344ZM229.031 506.359V506.688C229.031 507.917 228.891 509.057 228.609 510.109C228.328 511.151 227.906 512.062 227.344 512.844C226.792 513.625 226.109 514.234 225.297 514.672C224.484 515.099 223.542 515.312 222.469 515.312C221.448 515.312 220.562 515.099 219.812 514.672C219.073 514.234 218.448 513.63 217.938 512.859C217.438 512.078 217.031 511.188 216.719 510.188C216.417 509.177 216.182 508.099 216.016 506.953V506.312C216.182 505.094 216.422 503.964 216.734 502.922C217.047 501.88 217.453 500.979 217.953 500.219C218.453 499.448 219.073 498.849 219.812 498.422C220.552 497.995 221.432 497.781 222.453 497.781C223.516 497.781 224.458 497.984 225.281 498.391C226.104 498.797 226.792 499.38 227.344 500.141C227.906 500.891 228.328 501.792 228.609 502.844C228.891 503.896 229.031 505.068 229.031 506.359ZM224.141 506.688V506.359C224.141 505.672 224.089 505.042 223.984 504.469C223.88 503.885 223.714 503.38 223.484 502.953C223.255 502.516 222.953 502.177 222.578 501.938C222.203 501.698 221.745 501.578 221.203 501.578C220.62 501.578 220.125 501.672 219.719 501.859C219.312 502.047 218.984 502.323 218.734 502.688C218.484 503.042 218.302 503.479 218.188 504C218.083 504.521 218.026 505.115 218.016 505.781V507.5C218.026 508.281 218.135 508.979 218.344 509.594C218.562 510.198 218.901 510.672 219.359 511.016C219.828 511.349 220.453 511.516 221.234 511.516C221.786 511.516 222.245 511.396 222.609 511.156C222.984 510.906 223.281 510.557 223.5 510.109C223.729 509.661 223.891 509.146 223.984 508.562C224.089 507.979 224.141 507.354 224.141 506.688ZM236.516 501.344V521.5H231.641V498.094H236.188L236.516 501.344ZM247.062 506.359V506.688C247.062 507.917 246.922 509.057 246.641 510.109C246.359 511.151 245.938 512.062 245.375 512.844C244.823 513.625 244.141 514.234 243.328 514.672C242.516 515.099 241.573 515.312 240.5 515.312C239.479 515.312 238.594 515.099 237.844 514.672C237.104 514.234 236.479 513.63 235.969 512.859C235.469 512.078 235.062 511.188 234.75 510.188C234.448 509.177 234.214 508.099 234.047 506.953V506.312C234.214 505.094 234.453 503.964 234.766 502.922C235.078 501.88 235.484 500.979 235.984 500.219C236.484 499.448 237.104 498.849 237.844 498.422C238.583 497.995 239.464 497.781 240.484 497.781C241.547 497.781 242.49 497.984 243.312 498.391C244.135 498.797 244.823 499.38 245.375 500.141C245.938 500.891 246.359 501.792 246.641 502.844C246.922 503.896 247.062 505.068 247.062 506.359ZM242.172 506.688V506.359C242.172 505.672 242.12 505.042 242.016 504.469C241.911 503.885 241.745 503.38 241.516 502.953C241.286 502.516 240.984 502.177 240.609 501.938C240.234 501.698 239.776 501.578 239.234 501.578C238.651 501.578 238.156 501.672 237.75 501.859C237.344 502.047 237.016 502.323 236.766 502.688C236.516 503.042 236.333 503.479 236.219 504C236.115 504.521 236.057 505.115 236.047 505.781V507.5C236.057 508.281 236.167 508.979 236.375 509.594C236.594 510.198 236.932 510.672 237.391 511.016C237.859 511.349 238.484 511.516 239.266 511.516C239.818 511.516 240.276 511.396 240.641 511.156C241.016 510.906 241.312 510.557 241.531 510.109C241.76 509.661 241.922 509.146 242.016 508.562C242.12 507.979 242.172 507.354 242.172 506.688Z" fill="#610C89"/>
<path d="M247.076 389.037C250.301 398.297 251.082 406.825 249.088 413.621C247.154 420.215 242.501 425.574 233.848 428.588C224.988 431.673 213.828 431.62 204.106 428.484C194.363 425.342 186.68 419.333 183.803 411.073C180.613 401.913 180.011 392.897 182.242 385.568C184.429 378.382 189.388 372.595 197.954 369.612C206.718 366.56 217.582 367.037 227.074 370.615C236.577 374.196 244.158 380.66 247.076 389.037Z" fill="white" stroke="#610C89" stroke-width="7"/>
</g>
<defs>
<clipPath id="clip0_9_1216">
<rect width="430" height="932" fill="white"/>
</clipPath>
</defs>
</svg>
